<?xml version="1.0" encoding="utf-8" standalone="no"?>
<!DOCTYPE svg PUBLIC "-//W3C//DTD SVG 1.1//EN"
  "http://www.w3.org/Graphics/SVG/1.1/DTD/svg11.dtd">
<!-- Created with matplotlib (http://matplotlib.org/) -->
<svg height="489pt" version="1.1" viewBox="0 0 478 489" width="478pt" xmlns="http://www.w3.org/2000/svg" xmlns:xlink="http://www.w3.org/1999/xlink">
 <defs>
  <style type="text/css">
*{stroke-linecap:butt;stroke-linejoin:round;stroke-miterlimit:100000;}
  </style>
 </defs>
 <g id="figure_1">
  <g id="patch_1">
   <path d="M 0 489.6 
L 478.8 489.6 
L 478.8 0 
L 0 0 
z
" style="fill:#800080;"/>
  </g>
  <g id="axes_1">
   <g id="line2d_1">
    <path clip-path="url(#p50ab35e5ec)" d="M 72 244.8 
L 75.351351 239.538699 
L 77.362162 236.800559 
L 79.037838 234.940424 
L 80.378378 233.804732 
L 81.383784 233.190314 
L 82.389189 232.799311 
L 83.394595 232.64733 
L 84.4 232.747608 
L 85.405405 233.110871 
L 86.410811 233.745203 
L 87.416216 234.655949 
L 88.421622 235.845628 
L 89.762162 237.864717 
L 91.102703 240.369794 
L 92.443243 243.342732 
L 94.118919 247.674536 
L 95.794595 252.621789 
L 97.805405 259.239113 
L 100.486486 268.890323 
L 107.189189 293.564516 
L 109.2 300.005832 
L 110.875676 304.670081 
L 112.216216 307.831605 
L 113.556757 310.407933 
L 114.562162 311.915883 
L 115.567568 313.03154 
L 116.572973 313.731764 
L 117.243243 313.957552 
L 117.913514 313.984171 
L 118.583784 313.806845 
L 119.254054 313.421418 
L 119.924324 312.824368 
L 120.92973 311.525934 
L 121.935135 309.738305 
L 122.940541 307.458255 
L 123.945946 304.686199 
L 125.286486 300.232438 
L 126.627027 294.93187 
L 127.967568 288.81645 
L 129.643243 280.093901 
L 131.654054 268.194452 
L 134 252.645939 
L 136.681081 233.257109 
L 145.72973 166.283224 
L 147.740541 153.585494 
L 149.416216 144.249585 
L 151.091892 136.266443 
L 152.432432 130.980169 
L 153.437838 127.713943 
L 154.443243 125.082281 
L 155.448649 123.113518 
L 156.118919 122.181516 
L 156.789189 121.561303 
L 157.459459 121.258266 
L 158.12973 121.276926 
L 158.8 121.620918 
L 159.47027 122.292971 
L 160.140541 123.294896 
L 160.810811 124.627567 
L 161.816216 127.246313 
L 162.821622 130.604605 
L 163.827027 134.693337 
L 165.167568 141.256408 
L 166.508108 149.046315 
L 168.183784 160.414232 
L 169.859459 173.451182 
L 171.87027 191.037188 
L 174.216216 213.751105 
L 177.232432 245.358854 
L 184.605405 323.985351 
L 186.951351 346.283822 
L 188.962162 363.2856 
L 190.637838 375.619321 
L 191.978378 384.11638 
L 193.318919 391.280786 
L 194.324324 395.723799 
L 195.32973 399.331972 
L 196.335135 402.076906 
L 197.005405 403.415578 
L 197.675676 404.354549 
L 198.345946 404.889297 
L 199.016216 405.016391 
L 199.686486 404.733499 
L 200.356757 404.039402 
L 201.027027 402.934003 
L 201.697297 401.418327 
L 202.702703 398.380564 
L 203.708108 394.436796 
L 204.713514 389.604679 
L 206.054054 381.820901 
L 207.394595 372.569789 
L 209.07027 359.075869 
L 210.745946 343.628937 
L 212.756757 322.852314 
L 215.102703 296.124012 
L 218.454054 254.8997 
L 224.821622 175.655472 
L 227.167568 149.157262 
L 229.178378 128.679402 
L 230.854054 113.569639 
L 232.52973 100.508441 
L 233.87027 91.682679 
L 235.210811 84.40342 
L 236.216216 80.006511 
L 237.221622 76.550354 
L 238.227027 74.055791 
L 238.897297 72.934623 
L 239.567568 72.250611 
L 240.237838 72.005561 
L 240.908108 72.200095 
L 241.578378 72.833647 
L 242.248649 73.904469 
L 242.918919 75.40963 
L 243.924324 78.472468 
L 244.92973 82.484352 
L 245.935135 87.420815 
L 247.275676 95.388264 
L 248.616216 104.859276 
L 250.291892 118.655371 
L 251.967568 134.408166 
L 253.978378 155.520381 
L 256.324324 182.549441 
L 259.675676 223.952378 
L 265.372973 294.732108 
L 268.054054 325.049992 
L 270.064865 345.45038 
L 271.740541 360.54373 
L 273.416216 373.655087 
L 274.756757 382.584353 
L 276.097297 390.036651 
L 277.102703 394.616361 
L 278.108108 398.306463 
L 279.113514 401.091111 
L 279.783784 402.439241 
L 280.454054 403.378673 
L 281.124324 403.908907 
L 281.794595 404.030559 
L 282.464865 403.74536 
L 283.135135 403.056142 
L 283.805405 401.966828 
L 284.475676 400.482413 
L 285.481081 397.528498 
L 286.486486 393.724223 
L 287.491892 389.099382 
L 288.832432 381.716968 
L 290.172973 373.032329 
L 291.848649 360.510497 
L 293.524324 346.359058 
L 295.535135 327.594222 
L 298.216216 300.352722 
L 307.935135 198.795111 
L 310.281081 177.886416 
L 312.291892 162.16586 
L 313.967568 150.866456 
L 315.308108 143.116022 
L 316.648649 136.578112 
L 317.989189 131.298579 
L 318.994595 128.183817 
L 320 125.801879 
L 320.67027 124.622509 
L 321.340541 123.769659 
L 322.010811 123.241982 
L 322.681081 123.03721 
L 323.351351 123.152173 
L 324.021622 123.582811 
L 324.691892 124.3242 
L 325.362162 125.370568 
L 326.367568 127.497327 
L 327.372973 130.269726 
L 328.378378 133.658431 
L 329.718919 139.078117 
L 331.059459 145.447859 
L 332.735135 154.599279 
L 334.745946 167.054022 
L 337.091892 183.134095 
L 340.778378 210.307256 
L 345.47027 244.806424 
L 348.151351 262.815757 
L 350.162162 274.930945 
L 351.837838 283.907535 
L 353.513514 291.739244 
L 354.854054 297.118272 
L 356.194595 301.672256 
L 357.535135 305.379294 
L 358.540541 307.597192 
L 359.545946 309.332682 
L 360.551351 310.589326 
L 361.221622 311.16441 
L 361.891892 311.532674 
L 362.562162 311.697697 
L 363.232432 311.663688 
L 363.902703 311.435463 
L 364.572973 311.018419 
L 365.578378 310.051983 
L 366.583784 308.696507 
L 367.589189 306.976725 
L 368.92973 304.163831 
L 370.27027 300.82052 
L 371.945946 296.008823 
L 373.956757 289.509851 
L 376.972973 278.851576 
L 382 260.92308 
L 384.345946 253.401447 
L 386.356757 247.733311 
L 388.032432 243.681225 
L 389.372973 240.929792 
L 390.713514 238.642022 
L 392.054054 236.834059 
L 393.059459 235.797505 
L 394.064865 235.03453 
L 395.07027 234.541849 
L 396.075676 234.313386 
L 397.081081 234.340355 
L 398.086486 234.611372 
L 399.091892 235.112578 
L 400.097297 235.827794 
L 401.437838 237.082354 
L 402.778378 238.635777 
L 404.454054 240.914964 
L 406.8 244.527211 
L 406.8 244.527211 
" style="fill:none;stroke:#ffffff;stroke-linecap:square;stroke-width:10.0;"/>
   </g>
  </g>
 </g>
 <defs>
  <clipPath id="p50ab35e5ec">
   <rect height="345.6" width="334.8" x="72.0" y="72.0"/>
  </clipPath>
 </defs>
</svg>
