<?xml version="1.0" encoding="UTF-8" standalone="no"?>
<!-- Created with Inkscape (http://www.inkscape.org/) -->

<svg
   xmlns:dc="http://purl.org/dc/elements/1.1/"
   xmlns:cc="http://creativecommons.org/ns#"
   xmlns:rdf="http://www.w3.org/1999/02/22-rdf-syntax-ns#"
   xmlns:svg="http://www.w3.org/2000/svg"
   xmlns="http://www.w3.org/2000/svg"
   xmlns:sodipodi="http://sodipodi.sourceforge.net/DTD/sodipodi-0.dtd"
   xmlns:inkscape="http://www.inkscape.org/namespaces/inkscape"
   width="153.80099mm"
   height="124.89796mm"
   viewBox="0 0 544.96416 442.55184"
   id="svg2"
   version="1.1"
   inkscape:version="0.91 r13725"
   sodipodi:docname="troll.svg">
  <defs
     id="defs4" />
  <sodipodi:namedview
     id="base"
     pagecolor="#ffffff"
     bordercolor="#666666"
     borderopacity="1.0"
     inkscape:pageopacity="0.0"
     inkscape:pageshadow="2"
     inkscape:zoom="0.7"
     inkscape:cx="202.15616"
     inkscape:cy="279.66186"
     inkscape:document-units="px"
     inkscape:current-layer="g4146"
     showgrid="false"
     fit-margin-top="0"
     fit-margin-left="0"
     fit-margin-right="0"
     fit-margin-bottom="0"
     inkscape:window-width="1247"
     inkscape:window-height="975"
     inkscape:window-x="505"
     inkscape:window-y="27"
     inkscape:window-maximized="0" />
  <metadata
     id="metadata7">
    <rdf:RDF>
      <cc:Work
         rdf:about="">
        <dc:format>image/svg+xml</dc:format>
        <dc:type
           rdf:resource="http://purl.org/dc/dcmitype/StillImage" />
        <dc:title></dc:title>
      </cc:Work>
    </rdf:RDF>
  </metadata>
  <g
     inkscape:label="Layer 1"
     inkscape:groupmode="layer"
     id="layer1"
     transform="translate(-71.964872,-401.0273)">
    <g
       transform="matrix(1.25,0,0,-1.25,44.73214,877.00506)"
       inkscape:label="ink_ext_XXXXXX"
       id="g4144">
      <g
         transform="scale(0.1,0.1)"
         id="g4146">
        <g
           id="g4285">
          <path
             d="m 1708.6,3767.3 c 531.7,62.8 1068.3,40.7 1601.5,13 70.5,2.1 140.8,15.5 211.3,7.8 60.4,-7.1 114.5,-38.4 162.9,-73.5 97.5,-72 179.3,-163.4 248.8,-262.2 82.2,-118.6 100.1,-269 183,-387.4 109.4,-152.3 283.9,-243.7 387.9,-400.6 70.2,-101.8 82.1,-232.3 68.8,-352.1 -11.5,-107.6 -67.9,-205 -140.7,-283.1 -97.2,-103.2 -208.8,-196 -281.4,-319.6 -47.8,-81.3 -66.2,-175.9 -113.1,-257.5 C 3926,1285.2 3763.1,1160.5 3593,1057.6 3347,909.801 3079.3,804.102 2822.4,677.699 2701.7,619.301 2585.8,551.102 2462.2,498.801 c -114.1,-49.602 -239,-62.5 -360.3,-84.5 -105.5,-16.102 -208.5,-44.699 -312.6,-67.699 -255.3,-55.301 -518.2,-98.301 -779.9,-70.5 -178.798,19.199 -360.599,83.699 -486.201,217.097 -48.801,55 -94.301,116.102 -119.801,185.5 -14.796,210.801 13.903,421.101 41.403,629.601 26,200.7 41.699,406.7 -1.699,606.2 C 401,2072.5 301.199,2206.9 251,2361.9 c -39.301,117.3 -48.102,249.5 -1.898,366.1 74.796,137.4 223.5,217.4 292,359.3 39,75.5 46.699,162 44,245.6 122.398,122.4 275.597,209.8 435.798,272.8 220.1,86.6 453.8,132.5 687.7,161.6"
             style="fill:#0d0d0d;fill-opacity:1;fill-rule:nonzero;stroke:none"
             id="path4150"
             inkscape:connector-curvature="0" />
          <path
             d="m 1476.4,3623.1 c 530.7,77 1068.4,110.1 1604.4,90.8 126.4,-8.2 253.6,-0.2 379.6,-15.7 106.6,-14.3 202.8,-75.1 271.9,-156 163.9,-190.6 214.6,-451.9 382,-640.1 -71.9,-7.6 -143.7,12.8 -215.3,3.1 -21.5,-1.9 -40.5,-12.8 -57.7,-25 108.9,13.7 222.8,9.7 324.8,-34.7 139.5,-57.2 253.6,-177.5 296,-323 32.7,-113.4 15,-238.8 -43.5,-340.8 -68.6,-120.2 -180.8,-211.4 -305.4,-268.8 5.8,-2.7 11.7,-5.3 17.6,-8 22.6,8.5 42.7,21.9 62.8,35 2.8,-5.8 8.4,-17.5 11.2,-23.3 -32.1,-21 -67.2,-39.3 -90.9,-70.5 -56,-68.3 -73.5,-157.1 -105.2,-237.4 -33.8,-93.2 -98.6,-170.7 -167.4,-240.3 C 3675.5,1208 3471.3,1095.9 3267.1,992.398 3121.1,921 2972.7,854.602 2826,784.602 2697.5,724.699 2577.7,648.199 2448.8,589.199 c -28.6,-11.801 -57.1,-26 -88.2,-29.199 -44,-0.398 -87.5,12.301 -131.6,7.199 -77.2,-8.199 -149,-39.597 -221.7,-64.597 -150.6,-57 -309.9,-85.204 -468.6,-108.204 C 1360.1,370.699 1178.5,360 999.301,383 852.898,402.801 699.801,445.102 592.199,552.301 534.898,613.398 487.301,694.102 495,780.801 493.102,1129.1 586.301,1472.6 557.699,1821.5 c -12,106.6 -29.301,216.8 -85.801,310 -44.5,78.4 -108.097,148.3 -129.597,237.8 -20.699,106.4 -22.403,222 26.199,321.4 61,129 200.301,199.5 258,330.7 31.199,68.1 33.801,144.4 29.398,217.8 151.204,176.6 362.602,305.4 592.202,347.8 156.7,30.4 315.3,-2.7 472.5,-10.4 315.9,-20.5 623.8,88 939.6,72.8 145.3,-9.6 287.2,-51.5 418.6,-113.5 145,-68.1 275.8,-161.6 411,-246.6 43.3,-25.8 85.8,-54 133,-72.5 -142,112.1 -287.9,221.7 -447.4,308.1 -167.5,89.9 -354.7,145.2 -545.2,151 -315.7,10 -624.7,-81.5 -940.4,-75.9 -71.5,2.3 -143.7,6.3 -213.4,23.1"
             style="fill:#fcfcfc;fill-opacity:1;fill-rule:nonzero;stroke:none"
             id="path4152"
             inkscape:connector-curvature="0" />
          <path
             d="m 2251.4,3523.7 c 252.4,35.1 515.2,21.3 756.5,-65.2 147.4,-52.6 285.2,-133.5 400,-240.2 37.2,-36.8 76.6,-72.6 104.6,-117.3 -197.6,177.5 -432.9,319.6 -694.2,377.9 -158.4,37 -322.8,43.8 -484.6,29.1 -126.2,-13.5 -246,-63.5 -373.5,-68.3 -234,-15.5 -468.1,10.2 -700.2,38.6 -22.8,2.2 -45.5,6.6 -68.4,5.7 -40.2,-20.2 -70.8,-57.1 -116.3,-67.1 30.2,50.7 84.4,83.9 142.6,90.8 116,13.6 228.5,-25.5 342.7,-37.9 231.7,-20.6 462.3,19.9 690.8,53.9"
             style="fill:#0d0d0d;fill-opacity:1;fill-rule:nonzero;stroke:none"
             id="path4154"
             inkscape:connector-curvature="0" />
          <path
             d="m 2420.6,3390.3 c 233.3,24.4 477.1,7.3 694.3,-86.6 100.7,-45.8 204.7,-118.4 233.4,-231.6 -72.7,129.3 -211.1,203.7 -348.8,244.8 -210.4,61.8 -433.1,70.5 -650.7,59.7 23.1,8 47.4,11.9 71.8,13.7"
             style="fill:#0d0d0d;fill-opacity:1;fill-rule:nonzero;stroke:none"
             id="path4156"
             inkscape:connector-curvature="0" />
          <path
             d="m 1209,3308.8 c 156.4,51 326.6,53.3 486.8,18.9 29.4,-6.4 62.1,-6.6 87.6,-24.4 17.1,-9.2 1.6,-27.7 -1.9,-40 -142.8,56.7 -300.7,76.2 -452.6,52.2 -91.7,-16.5 -185.7,-54.9 -243.6,-131.1 -25.1,-31.7 -37.1,-70.5 -52.8,-107.1 3,56.8 24.1,110.2 49.5,160.3 33.4,36.3 81.4,54.9 127,71.2"
             style="fill:#0d0d0d;fill-opacity:1;fill-rule:nonzero;stroke:none"
             id="path4158"
             inkscape:connector-curvature="0" />
          <path
             d="m 2403,3338.8 c 15.7,15.3 33.5,1.9 49.3,-5.2 -52.1,-29.4 -91.1,-78.5 -111.2,-134.7 -2.9,-33.5 2.2,-68 -8.3,-100.7 -23.3,41.9 -19.1,92 -15.1,137.9 33.1,30.4 50.9,73.8 85.3,102.7"
             style="fill:#0d0d0d;fill-opacity:1;fill-rule:nonzero;stroke:none"
             id="path4160"
             inkscape:connector-curvature="0" />
          <path
             d="m 1667.6,3210.3 c 12.6,3.6 25.2,6.9 38,10.1 13.2,-27.3 28.7,-53.6 49.8,-75.7 -0.9,-66.1 0.9,-132.2 -0.9,-198.3 -53,47.6 -2.9,123 -21.6,181.9 -20.3,28.6 -49.8,49.9 -65.3,82"
             style="fill:#0d0d0d;fill-opacity:1;fill-rule:nonzero;stroke:none"
             id="path4162"
             inkscape:connector-curvature="0" />
          <path
             d="m 2651.5,3088.4 c 163.9,29.7 340,26.4 494.6,-41.5 98.6,-42.6 183.6,-126.8 205.9,-234.5 -26.4,-20.8 -56.7,-39.4 -91.3,-40.2 -79.2,-3.6 -152.5,34.8 -230.8,40.1 -217,17.5 -431.4,-50.8 -619.8,-154.2 -48,48.9 -129.2,66.2 -153,136.4 -18.3,43.9 15.4,83.8 40.8,116.4 89.8,101.9 223.8,150.6 353.6,177.5"
             style="fill:#0d0d0d;fill-opacity:1;fill-rule:nonzero;stroke:none"
             id="path4164"
             inkscape:connector-curvature="0" />
          <path
             d="m 2455.6,2913.9 c 81.5,50 175.4,73.2 265.6,102.1 -11.4,-48.4 19.8,-89.4 26.6,-135.5 -62,7.1 -123.7,-9.7 -176.7,-41.5 -57.1,-32.4 -121.1,-78 -189.8,-50.8 -6.7,54.4 30.3,99.6 74.3,125.7"
             style="fill:#fcfcfc;fill-opacity:1;fill-rule:nonzero;stroke:none"
             id="path4166"
             inkscape:connector-curvature="0" />
          <path
             d="m 1221.3,2986.4 c 122.6,30.3 252.5,9.3 370.1,-31.7 79.3,-30.3 162.1,-69.6 209.5,-143.5 49.6,14.4 105.7,36 154.5,6.8 -1,-19.5 -0.3,-42.6 -16.6,-56.4 -38.9,-38.6 -103.9,-33.4 -138.8,-78.1 -0.1,-70 0.3,-140 -0.3,-210 -60.6,-67.4 -175,-80.6 -203.7,-176.1 48.5,-84 108.4,-174.4 205.2,-206.4 39,-3 64.1,32.9 97.1,47.4 12,-7.1 24,-14.4 35.9,-21.8 -18.9,-46.7 -42.1,-97 -87.7,-123 -29.9,-16.4 -65.2,-5.7 -92.3,11 -94.5,59.2 -149.4,163 -242.9,223.4 -18.8,-20.5 -39.9,-48.5 -71,-45.6 -15.7,20.6 -21.9,46.4 -33.2,69.4 -87.8,-21.8 -159.4,-109 -255.8,-93.2 212.6,85 379.1,246 558.7,382.5 0,53.7 0,107.5 0,161.3 -84.3,50.4 -184.5,60.3 -280.3,69.7 -124.5,12.6 -253.8,12.9 -370.8,62.8 17.1,78.4 86.8,133.8 162.4,151.5"
             style="fill:#0d0d0d;fill-opacity:1;fill-rule:nonzero;stroke:none"
             id="path4168"
             inkscape:connector-curvature="0" />
          <path
             d="m 3100,2927.4 c 41.4,7.2 87.5,1.8 119.1,-28.3 14,-9.8 11.8,-27.8 11.8,-42.6 -29.9,26 -68.8,25 -105.7,30.2 -20.6,2 -21,25.4 -25.2,40.7"
             style="fill:#fcfcfc;fill-opacity:1;fill-rule:nonzero;stroke:none"
             id="path4170"
             inkscape:connector-curvature="0" />
          <path
             d="m 1211.6,2900.4 c 49.7,-2.8 98.9,6.9 148.6,7.1 23.9,0.8 46.1,-9.6 63.1,-26 -41.5,1.2 -82.8,-1.8 -124.1,-5.7 -30.8,-2.4 -66.2,-1.2 -87.6,24.6"
             style="fill:#fcfcfc;fill-opacity:1;fill-rule:nonzero;stroke:none"
             id="path4172"
             inkscape:connector-curvature="0" />
          <path
             d="m 3398,2902.3 c 70.6,8.5 133.8,-40.5 205,-25 -11.8,-70.5 -113.5,-86.3 -162.1,-43.5 32.4,5 75.8,-9.8 96.2,23.5 -48.8,3.8 -101.9,9.1 -139.1,45"
             style="fill:#0d0d0d;fill-opacity:1;fill-rule:nonzero;stroke:none"
             id="path4174"
             inkscape:connector-curvature="0" />
          <path
             d="m 688.801,2852.9 c 70.597,-11.3 141,4.4 210.597,15.2 41.102,7.4 86.102,-2 115.302,-33.3 -125.598,16.5 -256.7,14.4 -376.001,-32.5 -99.801,-37 -190.597,-111.8 -227.801,-213.7 -34,-89.8 -23.898,-190 5.204,-279.7 6.796,-18.8 11.5,-40.9 28.898,-53.1 59.801,-45.2 141.699,-45.5 201.301,-90.4 18,-11.9 13.199,-33.7 12.5,-52.1 -27.301,17.6 -53,38.2 -83.403,50.2 -57.398,25 -123.597,37 -169.398,82.8 -44.102,97.1 -57.801,210 -32.398,314.2 32.097,135.2 138.898,246.4 267.796,294.6 15.403,5.7 31.704,-1.4 47.403,-2.2"
             style="fill:#0d0d0d;fill-opacity:1;fill-rule:nonzero;stroke:none"
             id="path4176"
             inkscape:connector-curvature="0" />
          <path
             d="m 3784.9,2842.9 c 53.2,17.1 110.1,11.1 165.2,12.5 103.1,0.8 213,-23.1 290.8,-94.9 70.1,-66.5 97.3,-165.1 102.9,-258.9 5,-53.5 -2.4,-106.9 -3.9,-160.3 -5.8,6.5 -11.6,13 -17.4,19.4 8.3,83.1 6.1,167.1 -2.4,250 -33.9,82.6 -96.3,158 -181.3,190.7 -112.6,45.1 -236.1,28.4 -353.9,41.5"
             style="fill:#0d0d0d;fill-opacity:1;fill-rule:nonzero;stroke:none"
             id="path4178"
             inkscape:connector-curvature="0" />
          <path
             d="m 3392.2,2788 c 30.7,16.1 64.5,-7.9 78.7,-35.3 -30.6,-1.1 -57.6,14.5 -78.7,35.3"
             style="fill:#0d0d0d;fill-opacity:1;fill-rule:nonzero;stroke:none"
             id="path4180"
             inkscape:connector-curvature="0" />
          <path
             d="m 3668.9,2762.3 c 129.5,26.2 271.7,4.7 380.6,-72.8 98.8,-68.8 167.6,-185.6 161.2,-308 -1.9,-104.4 -61.1,-199.4 -139.3,-265.3 -30.9,67.7 10,134.8 32.6,197.5 29.1,71.3 13,152.6 -21.7,218.8 -34.2,66.9 -99.6,114.4 -171.4,133.9 -63.9,19.8 -131.6,17.2 -197.5,13.2 -67,-64.9 -156.5,-99.4 -245.1,-123.3 C 3352,2527 3229.8,2518 3111.1,2536 c -79.9,13.8 -164.4,42.5 -215.5,109.2 -27.7,34.5 -36.6,79.3 -38.2,122.5 103.7,-15.2 164.1,-115.7 261.4,-146.4 88.5,-28 186.6,-18.4 272,16.1 94.3,38 176.6,105.1 278.1,124.9"
             style="fill:#0d0d0d;fill-opacity:1;fill-rule:nonzero;stroke:none"
             id="path4182"
             inkscape:connector-curvature="0" />
          <path
             d="m 517.898,2653.7 c 51.102,43.9 115.903,66.1 178.403,88.3 -32.102,-67.9 -131.199,-58.8 -157.699,-131.3 -21.301,-65.1 4.699,-136.5 -18.903,-201.9 -6,8.7 -11.898,17.3 -18,25.9 1.102,73.3 12.602,145.9 16.199,219"
             style="fill:#0d0d0d;fill-opacity:1;fill-rule:nonzero;stroke:none"
             id="path4184"
             inkscape:connector-curvature="0" />
          <path
             d="m 694.199,2636.1 c 83.199,39.8 179.5,22.9 264.5,-2.2 77.601,-24.4 153.401,-59.9 213.501,-115.8 34,18.4 62.7,46.1 98.8,60.8 21.1,6.4 40.7,-3.2 57.7,-14.7 -2.2,-41.7 -17.3,-86.6 -57.4,-106.1 -79.9,-38.5 -171.5,-22.3 -257.1,-26.3 -3,51.1 -28.302,107.5 -82.098,121.1 C 822.5,2580.3 716,2526 607.5,2518.6 c 11.699,48.7 39.398,96.2 86.699,117.5"
             style="fill:#0d0d0d;fill-opacity:1;fill-rule:nonzero;stroke:none"
             id="path4186"
             inkscape:connector-curvature="0" />
          <path
             d="m 3724,2595.9 c 12.8,17.3 35.8,15.7 54.8,18.4 2,-47.7 8,-98.3 37.9,-137.5 61,-83.7 176.3,-102.1 237.7,-185.5 -49.8,-45.7 -117,-10.1 -174.6,-6.5 -30.8,5.5 -39.5,-31.6 -52.2,-52 -19.4,-31.7 -21.3,-69.8 -6.9,-103.8 12.4,-21 -16.2,-30 -26.1,-43.5 -106.2,-107.4 -177.6,-242.4 -266.9,-363 -70.2,-97.8 -151.8,-188.2 -247.3,-261.8 -163.6,-126.3 -345.4,-229.7 -539,-302.3 -182.3,-69.4 -378.1,-89.7 -571.2,-105.2 -222.7,-15 -446.4,-16.1 -669.1,-0.2 -155.4,12.8 -311.9,30.5 -461.2,77.2 -60.701,20.1 -124.099,43.8 -167.298,93.2 -64.204,72.1 -98.801,164.7 -123.5,256.6 -49.5,198.6 -55.903,407.1 -27.801,609.3 13,95.6 59.898,181.1 104.801,264.8 21.699,34.9 10.199,78.1 23.597,115.2 7.903,21.5 34.403,9.4 51.102,11 40,-85.3 16,-183.4 45.097,-271.1 155.702,-155 374.002,-230.4 588.402,-257.5 310,-36.4 622.9,11.5 924.1,84.6 432.5,108.3 848.4,274 1251.6,462.5 0.9,32.4 -5.6,68.8 14,97.1"
             style="fill:#0d0d0d;fill-opacity:1;fill-rule:nonzero;stroke:none"
             id="path4188"
             inkscape:connector-curvature="0" />
          <path
             d="m 2295.7,2360.6 c 2.9,56.4 64.3,80.5 113.3,74.3 61.8,-7.2 129.1,-23.4 174,-69.4 14.4,-35.8 9.4,-76.7 8.6,-114.6 -5.9,-55.2 -24.5,-121.6 -80.3,-145.4 -26.4,-12.9 -54.8,0.3 -80.7,7.7 0,17.3 -3.7,35.7 4.4,51.8 15.2,32.9 56.3,45.6 68,80.7 9.2,24.5 0.8,50.2 -3.7,74.6 -65.6,25.3 -139.5,10.1 -203.6,40.3"
             style="fill:#0d0d0d;fill-opacity:1;fill-rule:nonzero;stroke:none"
             id="path4190"
             inkscape:connector-curvature="0" />
          <path
             d="m 2615.5,2363.9 c -7.3,21.1 -13.5,52.5 13,62.2 7,-2 20.8,-5.8 27.7,-7.8 -9.3,-7 -18.6,-13.9 -27.9,-20.8 1.8,-25.4 20.6,-46.4 45.4,-51.7 90.8,-22.5 185.3,7.5 276.5,-9.1 20,-1.8 26.4,-20.1 23.2,-38 -84.1,46.8 -182.3,9.5 -272.5,18.1 -32.6,2.1 -73.8,12.1 -85.4,47.1"
             style="fill:#0d0d0d;fill-opacity:1;fill-rule:nonzero;stroke:none"
             id="path4192"
             inkscape:connector-curvature="0" />
          <path
             d="m 503.801,2408.6 c 4.898,-3.1 14.898,-9.4 19.898,-12.6 26.5,-54.1 84.5,-79.8 123.903,-122.7 -34.801,4.2 -72.102,10.6 -98.602,35.6 -28.898,24.9 -38.699,63.8 -45.199,99.7"
             style="fill:#0d0d0d;fill-opacity:1;fill-rule:nonzero;stroke:none"
             id="path4194"
             inkscape:connector-curvature="0" />
          <path
             d="m 3330.4,2203.9 c 146.8,48.8 264.4,175.4 425.1,182.1 2.5,-87 -37.9,-171.8 -103.5,-228.1 -91.4,-79.9 -212.1,-115.3 -330.2,-131.7 28.9,56.1 -0.5,118.5 8.6,177.7"
             style="fill:#fcfcfc;fill-opacity:1;fill-rule:nonzero;stroke:none"
             id="path4196"
             inkscape:connector-curvature="0" />
          <path
             d="m 4320.4,2350.1 c 5.6,-7.5 11.2,-15.1 16.8,-22.6 -10.6,-71.2 -23.5,-142.1 -41.2,-211.9 -60.6,-36 -117.1,-83.5 -187.5,-98.6 -18,-5.6 -35.9,0.9 -53.1,5.9 67.6,11 136.4,37.2 181.1,91.4 54.4,65.7 78,152 83.9,235.8"
             style="fill:#0d0d0d;fill-opacity:1;fill-rule:nonzero;stroke:none"
             id="path4198"
             inkscape:connector-curvature="0" />
          <path
             d="m 2128.2,2262.7 c 84.3,22.9 174.3,12.9 256.7,-13 2.8,-37.6 -0.1,-76.3 -20.3,-109.1 -90.7,81.4 -215.9,-7.2 -317.4,40.8 5.2,42.1 41.8,71.5 81,81.3"
             style="fill:#0d0d0d;fill-opacity:1;fill-rule:nonzero;stroke:none"
             id="path4200"
             inkscape:connector-curvature="0" />
          <path
             d="m 832.801,2089.6 c 11.301,25.5 25.398,49.8 44.699,70 -4.699,-30.3 -13.398,-60.4 -32.602,-85 -3,3.8 -9.097,11.3 -12.097,15"
             style="fill:#fcfcfc;fill-opacity:1;fill-rule:nonzero;stroke:none"
             id="path4202"
             inkscape:connector-curvature="0" />
          <path
             d="m 2679.8,2001.2 c 187.5,48.1 369.8,115.3 559.2,156.6 -1.2,-81.5 -40.5,-162.5 -110.8,-206 -123.4,-78.3 -275.1,-86.6 -405.8,-148.6 -16.5,65.5 -24.9,132.8 -42.6,198"
             style="fill:#fcfcfc;fill-opacity:1;fill-rule:nonzero;stroke:none"
             id="path4204"
             inkscape:connector-curvature="0" />
          <path
             d="m 886.801,1861.9 c 1.199,75.6 40.199,144.6 81.898,205.4 25.301,-95.7 1.102,-195.9 -24.199,-289 -32.898,14.8 -59.898,45.5 -57.699,83.6"
             style="fill:#fcfcfc;fill-opacity:1;fill-rule:nonzero;stroke:none"
             id="path4206"
             inkscape:connector-curvature="0" />
          <path
             d="m 3420.3,1928.3 c 53.5,30.5 113.8,48.4 175.1,52.8 -103.5,-84.4 -128.3,-247 -265.3,-292.7 -15.7,34.7 -28.9,72.9 -20.1,111.4 12.6,58.1 60.6,100.4 110.3,128.5"
             style="fill:#fcfcfc;fill-opacity:1;fill-rule:nonzero;stroke:none"
             id="path4208"
             inkscape:connector-curvature="0" />
          <path
             d="m 1081.2,1736 c -9.9,78.2 -54,180.3 17.5,241.8 37.6,-37.9 88,-56.7 138.8,-69.1 5.6,-48.4 -29.5,-86.4 -43.5,-129.9 -8.1,-24.4 4.1,-48.4 13.6,-70.3 -40.8,14.4 -81.5,37.8 -126.4,27.5"
             style="fill:#fcfcfc;fill-opacity:1;fill-rule:nonzero;stroke:none"
             id="path4210"
             inkscape:connector-curvature="0" />
          <path
             d="m 2179.2,1875.4 c 134.8,30.3 269.8,60.1 406.6,80.6 19.4,-65.5 26,-133.9 44.3,-199.6 -105,-11.3 -204.5,-49.7 -308.8,-64.5 -60.7,-9.2 -122.4,-8.3 -183.4,-3.5 0.6,58.2 -1.1,116.3 0.5,174.4 11.4,8.7 27.4,8.4 40.8,12.6"
             style="fill:#fcfcfc;fill-opacity:1;fill-rule:nonzero;stroke:none"
             id="path4212"
             inkscape:connector-curvature="0" />
          <path
             d="m 1289.7,1730.4 c 43.7,42.3 17.8,112 56.2,157.2 95.3,-52.9 209.7,-21.9 309.8,-58.7 -35.1,-39.6 -7,-94 -12.6,-140.9 -118.5,0.3 -241.7,-3.4 -353.4,42.4"
             style="fill:#fcfcfc;fill-opacity:1;fill-rule:nonzero;stroke:none"
             id="path4214"
             inkscape:connector-curvature="0" />
          <path
             d="m 1759.5,1841.7 c 97.5,-13.4 190.8,26.3 287.7,26.5 0.5,-60 0.1,-120.1 0.3,-180.1 -105.3,-0.2 -210.5,-0.5 -315.8,0.1 -13.8,55 31.5,99.3 27.8,153.5"
             style="fill:#fcfcfc;fill-opacity:1;fill-rule:nonzero;stroke:none"
             id="path4216"
             inkscape:connector-curvature="0" />
          <path
             d="m 2768,1640.2 c 156.6,38 304,105.1 446.6,178.7 -13,-79.4 5.3,-165.5 66.6,-221 -144.3,-83.4 -268.8,-198.6 -421.5,-267.8 -1.9,90.8 -83.6,152.6 -92.6,241.1 -3.5,23 -0.9,46.1 0.9,69"
             style="fill:#fcfcfc;fill-opacity:1;fill-rule:nonzero;stroke:none"
             id="path4218"
             inkscape:connector-curvature="0" />
          <path
             d="m 2227.8,1483.4 c 155,19.6 301.3,77.4 446,133.6 -3.9,-52 -5,-106.7 19,-154.5 27.8,-57.7 66.5,-111.7 74.6,-177 -135.9,-33.4 -266.4,-90.8 -406.8,-103.7 -42.9,-5.1 -86.1,1 -127.9,10.4 17.2,96.7 -20.1,193.9 -4.9,291.2"
             style="fill:#fcfcfc;fill-opacity:1;fill-rule:nonzero;stroke:none"
             id="path4220"
             inkscape:connector-curvature="0" />
          <path
             d="m 855.5,1466.7 c -9.199,18.2 -7.898,38.8 -4.602,58.2 21.602,-50.7 59,-92.7 80.5,-143.4 11.403,-23.9 5.5,-50.7 -4.699,-73.8 -12.097,57.9 -47.301,106.1 -71.199,159"
             style="fill:#fcfcfc;fill-opacity:1;fill-rule:nonzero;stroke:none"
             id="path4222"
             inkscape:connector-curvature="0" />
          <path
             d="m 1030.8,1463.8 c 70.7,-64.9 107.8,-156.4 136.9,-245.8 -55,14.2 -112.9,20.6 -164.3,45.8 -15.4,6.5 -20.201,23.3 -26.201,37.1 8.403,-7.4 16.602,-14.9 24.801,-22.6 17.6,4.9 38.2,6.8 50.7,22 20.2,57.8 -59.001,108.3 -21.9,163.5"
             style="fill:#fcfcfc;fill-opacity:1;fill-rule:nonzero;stroke:none"
             id="path4224"
             inkscape:connector-curvature="0" />
          <path
             d="m 1779.1,1415.3 c 121.2,-10.6 242.9,9.7 358.7,45.1 6.1,-96.6 -22.6,-199.2 18,-290.9 -107.2,-35.9 -221.6,-16.3 -332.2,-19.5 -11,89.1 -32.5,176.4 -44.5,265.3"
             style="fill:#fcfcfc;fill-opacity:1;fill-rule:nonzero;stroke:none"
             id="path4226"
             inkscape:connector-curvature="0" />
          <path
             d="m 1192.5,1418.2 c 54.6,3.8 99.9,-38.1 155.3,-29.4 -2.8,-79.5 54.4,-141.6 68.6,-217 -51.7,7.5 -106.6,9.8 -151.6,39.4 5.9,18.6 16.3,38.8 6.8,58.2 -18.3,53.7 -62,94.4 -79.1,148.8"
             style="fill:#fcfcfc;fill-opacity:1;fill-rule:nonzero;stroke:none"
             id="path4228"
             inkscape:connector-curvature="0" />
          <path
             d="m 1441.2,1394 c 67.2,15.7 145.3,24.8 204.1,-19.1 67.1,-54.3 75.8,-147.1 85.8,-226.8 -67.1,-2.8 -135.1,0.9 -199.2,22.7 -18,79.1 -66.5,146.3 -90.7,223.2"
             style="fill:#fcfcfc;fill-opacity:1;fill-rule:nonzero;stroke:none"
             id="path4230"
             inkscape:connector-curvature="0" />
          <path
             d="m 3057.2,1171.8 c 109.2,50 221.6,101 342.6,112.2 -195.3,-69.9 -376,-172.8 -563.7,-259.8 C 2593.5,911.102 2331.5,816.301 2060,828 c -100.1,11.801 -199.9,-8.898 -300.2,-7.898 -192.7,2.296 -387.7,-21.602 -578.6,16 -79,17.097 -161.4,47.398 -212.899,113.199 -26.602,31.597 -40.5,71.299 -48.403,111.299 C 989.301,944 1121.7,888.199 1248.6,859.398 c 157.7,-33.597 320.6,-44.699 481.4,-30.597 215.6,9.199 434,7.301 645.1,58.199 241,58.602 459.8,178.8 682.1,284.8"
             style="fill:#0d0d0d;fill-opacity:1;fill-rule:nonzero;stroke:none"
             id="path4232"
             inkscape:connector-curvature="0" />
          <path
             d="m 3280.6,1147.9 c 109.6,54 216.8,125.7 341.9,135.1 -135.9,-91.5 -284,-163.7 -432.9,-231.6 C 2603.4,791.301 1960.5,668.102 1320.3,667.398 c -127.4,-0.699 -257.3,4.602 -379.8,43 -97.199,30.403 -188,91.5 -239.301,181.102 -1.5,37.801 -16.597,79.699 -1.699,115.5 5,2.9 15,8.6 20,11.5 1,-46 0.301,-92.102 0.5,-138.102 C 775.199,824.699 844.898,785.398 918.301,759 1031,717.5 1151,700.898 1270.2,692.199 c 187.3,-11.301 375.1,0.301 561.5,20 504.6,53 996.4,207.903 1448.9,435.701"
             style="fill:#0d0d0d;fill-opacity:1;fill-rule:nonzero;stroke:none"
             id="path4234"
             inkscape:connector-curvature="0" />
          <path
             d="m 1446.4,965.398 c 141.2,-1.199 282.5,2.204 423.5,-2.597 93.2,-0.199 193.6,26.398 281.6,-15 -153.7,6.699 -307.2,-5.5 -460.9,-5.801 -81.5,2.199 -165.3,0.102 -244.2,23.398"
             style="fill:#0d0d0d;fill-opacity:1;fill-rule:nonzero;stroke:none"
             id="path4236"
             inkscape:connector-curvature="0" />
        </g>
      </g>
    </g>
  </g>
</svg>
