<?xml version="1.0" encoding="UTF-8" standalone="no"?>
<svg
   xmlns:dc="http://purl.org/dc/elements/1.1/"
   xmlns:cc="http://creativecommons.org/ns#"
   xmlns:rdf="http://www.w3.org/1999/02/22-rdf-syntax-ns#"
   xmlns:svg="http://www.w3.org/2000/svg"
   xmlns="http://www.w3.org/2000/svg"
   xmlns:sodipodi="http://sodipodi.sourceforge.net/DTD/sodipodi-0.dtd"
   xmlns:inkscape="http://www.inkscape.org/namespaces/inkscape"
   width="462.18723"
   height="382.64481"
   viewBox="0 0 462.18723 382.64481"
   id="svg2"
   version="1.1"
   inkscape:version="0.91 r13725"
   sodipodi:docname="logo.svg">
  <metadata
     id="metadata28">
    <rdf:RDF>
      <cc:Work
         rdf:about="">
        <dc:format>image/svg+xml</dc:format>
        <dc:type
           rdf:resource="http://purl.org/dc/dcmitype/StillImage" />
        <dc:title>pyDay 2017</dc:title>
      </cc:Work>
    </rdf:RDF>
  </metadata>
  <defs
     id="defs26">
    <filter
       inkscape:label="Opacity"
       style="color-interpolation-filters:sRGB"
       id="filter3356">
      <feColorMatrix
         values="1 0 0 0 0 0 1 0 0 0 0 0 1 0 0 0 0 0 5 -1 "
         result="colormatrix"
         id="feColorMatrix3358" />
      <feComposite
         in2="colormatrix"
         operator="arithmetic"
         k2="0.5"
         result="composite"
         id="feComposite3360"
         k1="0"
         k3="0"
         k4="0" />
    </filter>
  </defs>
  <sodipodi:namedview
     pagecolor="#ffffff"
     bordercolor="#666666"
     borderopacity="1"
     objecttolerance="10"
     gridtolerance="10"
     guidetolerance="10"
     inkscape:pageopacity="0"
     inkscape:pageshadow="2"
     inkscape:window-width="1855"
     inkscape:window-height="1056"
     id="namedview24"
     showgrid="false"
     inkscape:zoom="0.84455959"
     inkscape:cx="238.6199"
     inkscape:cy="187.8905"
     inkscape:window-x="65"
     inkscape:window-y="24"
     inkscape:window-maximized="1"
     inkscape:current-layer="svg2"
     borderlayer="false"
     fit-margin-top="0"
     fit-margin-left="0"
     fit-margin-right="0"
     fit-margin-bottom="0" />
  <title
     id="title4">pyDay 2017</title>
  <g
     id="g6"
     style="fill:none;fill-rule:evenodd;filter:url(#filter3356)"
     transform="translate(38.515602,85.80364)">
    <g
       id="g8"
       style="fill-rule:nonzero">
      <path
         d="m 179.628,201.04 -59.913,0 0,-200.873 197.156,0 0,130.696 -137.245,0 z"
         id="path10"
         inkscape:connector-curvature="0"
         style="fill:#006997" />
      <g
         id="g12"
         style="fill:#006997">
        <path
           d="m 99.277,20.179 20.582,0 0,20.583 -20.582,0 z m 0,59.731 20.582,0 0,20.583 -20.582,0 z m 0,38.341 20.582,0 0,20.583 -20.582,0 z m -59.324,3.632 17.353,0 0,17.354 -17.353,0 z M 0,161.839 l 17.353,0 0,17.354 -17.353,0 z m 39.953,0 17.353,0 0,17.354 -17.353,0 z m 20.582,0.807 16.143,0 0,16.143 -16.143,0 z m 20.581,-59.731 15.739,0 0,15.74 -15.739,0 z m -0.403,-39.148 16.143,0 0,16.143 -16.143,0 z m 0.403,-43.588 16.143,0 0,16.143 -16.143,0 z m -20.178,22.198 16.143,0 0,16.143 -16.143,0 z M 2.421,23.812 l 12.107,0 0,12.108 -12.107,0 z m 60.131,0.403 12.107,0 0,12.108 -12.107,0 z m -1.614,39.552 16.143,0 0,16.143 -16.143,0 z m 0,39.148 16.143,0 0,16.143 -16.143,0 z m -40.356,-0.807 16.143,0 0,16.143 -16.143,0 z m 0,41.569 16.143,0 0,16.143 -16.143,0 z m 20.582,-101.3 16.143,0 0,16.143 -16.143,0 z m 0,41.166 13.721,0 0,13.722 -13.721,0 z M 25.021,5.65 l 8.071,0 0,8.072 -8.071,0 z m -20.582,60.538 8.071,0 0,8.072 -8.071,0 z m 60.131,81.525 8.071,0 0,8.072 -8.071,0 z m 0.404,38.744 8.071,0 0,8.072 -8.071,0 z M 83.941,4.439 l 9.686,0 0,9.686 -9.686,0 z m 0,81.122 9.686,0 0,9.686 -9.686,0 z"
           id="path14"
           inkscape:connector-curvature="0" />
        <path
           d="m 41.164,83.543 13.721,0 0,13.722 -13.721,0 z m 58.113,76.278 20.582,0 0,41.166 -20.582,0 z M 43.585,4.439 l 9.686,0 0,9.686 -9.686,0 z"
           id="path16"
           inkscape:connector-curvature="0" />
      </g>
      <path
         d="m 162.765,62.382 0,15.216 -3.765,0 0,-32.546 c 0,0 6.138,0 10.264,-0.052 5.21,0.052 9.182,3.868 9.233,8.769 0,4.951 -3.714,8.613 -8.665,8.613 l -7.067,0 z m 11.915,-8.717 c 0,-3.043 -2.63,-5.931 -5.88,-5.931 l -6.035,0 0,12.07 5.932,0 c 3.559,0 5.983,-2.528 5.983,-6.139 z m 11.709,16.61 0,-15.837 -3.817,1.29 0,15.68 c 0,4.178 3.868,6.602 7.273,6.602 4.436,0 6.963,-1.238 8.098,-1.754 0.051,0.568 0,0.413 0,0.98 0,1.65 -0.052,4.488 -0.826,5.932 -1.547,2.94 -5.673,3.353 -8.562,3.765 l 0.62,2.373 c 3.816,-0.103 9.18,-1.547 11.089,-5.158 1.083,-2.063 1.238,-6.035 1.238,-8.665 l 0,-20.477 -3.766,0 0,18.414 c -1.238,0.826 -3.507,1.96 -5.519,2.012 -3.352,0.052 -5.828,-1.754 -5.828,-5.21 l 0,0.052 z m 44.462,-8.408 c 0,7.994 -5.055,16.092 -12.947,16.092 -4.126,0 -8.046,-2.217 -10.264,-4.023 l 0,-28.884 10.419,0.051 c 8.923,0 12.792,8.717 12.792,16.764 z m -4.282,0.412 c 0,-7.066 -1.96,-14.39 -11.038,-14.597 l -4.074,0 0,25.378 c 1.238,1.135 3.507,2.27 5.673,2.27 6.396,0 9.44,-7.118 9.44,-13.05 z m 25.997,11.864 c -2.167,2.166 -5.674,3.92 -10.162,3.868 -4.074,-0.103 -7.427,-3.353 -7.324,-7.479 0.052,-4.384 3.456,-7.066 7.789,-7.015 l 6.138,0 0,-2.217 c 0,-2.579 -2.373,-4.332 -4.9,-4.332 -2.27,0 -3.92,0.567 -5.932,1.598 L 237.246,56.4 c 2.683,-1.444 4.746,-1.96 7.84,-1.96 3.766,0 7.48,2.476 7.48,6.654 l 0,13.05 z m -3.663,-0.516 0,-7.737 c -1.186,0 -3.094,0 -4.951,0.051 -2.889,0 -5.055,1.65 -5.055,4.488 0,2.579 2.166,5.055 5.158,5.055 2.166,0.051 4.178,-1.135 4.848,-1.857 z m 13.514,-3.353 0,-15.834 -3.817,1.29 0,15.68 c 0,4.178 3.869,6.602 7.273,6.602 4.436,0 6.963,-1.238 8.098,-1.754 0.052,0.568 0,0.413 0,0.98 0,1.65 -0.051,4.488 -0.825,5.932 -1.547,2.94 -5.674,3.353 -8.562,3.765 l 0.619,2.373 c 3.817,-0.103 9.18,-1.547 11.09,-5.158 1.083,-2.063 1.237,-6.035 1.237,-8.665 l 0,-20.479 -3.765,0 0,18.414 c -1.238,0.826 -3.507,1.96 -5.52,2.012 -3.352,0.052 -5.828,-1.754 -5.828,-5.21 l 0,0.052 z"
         id="path18"
         inkscape:connector-curvature="0"
         style="fill:#ffffff" />
    </g>
    <path
       d="m 325.243,69 59.913,0 0,200.871 -197.156,0 0,-130.696 137.245,0 z"
       id="path20"
       inkscape:connector-curvature="0"
       style="fill:#ffc40d;fill-rule:nonzero" />
    <path
       d="m 241.063,215 -17.938,0 0,-5.125 17.938,0 0,5.125 z m 0,-5.125 0,-10.25 -5.125,0 0,-5.125 10.25,0 0,15.375 -5.125,0 z m -17.938,0 -5.125,0 0,-20.5 5.125,0 0,20.5 z m 23.063,-20.5 -23.063,0 0,-5.125 23.063,0 0,5.125 z m 27.024,25.625 -17.938,0 0,-5.125 -5.125,0 0,-5.125 5.125,0 0,-5.125 12.812,0 0,-2.563 5.125,0 0,17.938 z m -17.938,-5.125 12.812,0 0,-5.125 -12.812,0 0,5.125 z m 12.812,-12.813 -17.936,0 0,-5.125 17.937,0 0,5.125 z M 282.3,215 l -5.125,0 0,-30.75 5.125,0 0,30.75 z m 9.087,0 -5.125,0 0,-23.063 5.125,0 0,23.063 z m 0,-25.625 -5.125,0 0,-5.125 5.125,0 0,5.125 z m 21.9,25.625 -12.812,0 0,-5.125 12.812,0 0,5.125 z m 0,-5.125 0,-5.125 5.125,0 0,5.125 -5.125,0 z m -12.812,0 -5.125,0 0,-12.813 5.125,0 0,12.813 z m 17.937,-7.688 -5.125,0 0,-5.125 5.125,0 0,5.125 z m -5.125,-5.125 -12.812,0 0,-5.125 12.812,0 0,5.125 z M 327.5,215 l -5.125,0 0,-23.063 5.125,0 0,23.063 z m 0,-25.625 -5.125,0 0,-5.125 5.125,0 0,5.125 z m 27.025,25.625 -17.938,0 0,-5.125 -5.125,0 0,-5.125 5.125,0 0,-5.125 12.813,0 0,-2.563 5.125,0 0,17.938 z m -17.938,-5.125 12.813,0 0,-5.125 -12.813,0 0,5.125 z m 12.813,-12.813 -17.938,0 0,-5.125 17.938,0 0,5.125 z"
       id="path22"
       inkscape:connector-curvature="0"
       style="fill:#ffffff" />
  </g>
</svg>
