<svg width="386" height="270" viewBox="0 0 386 270" xmlns="http://www.w3.org/2000/svg"><title>pyDay 2017</title><g fill="none" fill-rule="evenodd"><g fill-rule="nonzero"><path fill="#006997" d="M179.628 201.04h-59.913V.167h197.156v130.696H179.626z"/><g fill="#006997"><path d="M99.277 20.179h20.582v20.583H99.277zm0 59.731h20.582v20.583H99.277zm0 38.341h20.582v20.583H99.277zm-59.324 3.632h17.353v17.354H39.953zM0 161.839h17.353v17.354H0zm39.953 0h17.353v17.354H39.953zm20.582.807h16.143v16.143H60.535zm20.581-59.731h15.739v15.74H81.116zm-.403-39.148h16.143V79.91H80.713zm.403-43.588h16.143v16.143H81.116zM60.938 42.377h16.143V58.52H60.938zM2.421 23.812h12.107V35.92H2.421zm60.131.403h12.107v12.108H62.552zm-1.614 39.552h16.143V79.91H60.938zm0 39.148h16.143v16.143H60.938zm-40.356-.807h16.143v16.143H20.582zm0 41.569h16.143v16.143H20.582zm20.582-101.3h16.143V58.52H41.164zm0 41.166h13.721v13.722H41.164zM25.021 5.65h8.071v8.072h-8.071zM4.439 66.188h8.071v8.072H4.439zm60.131 81.525h8.071v8.072H64.57zm.404 38.744h8.071v8.072h-8.071zM83.941 4.439h9.686v9.686h-9.686zm0 81.122h9.686v9.686h-9.686z"/><path d="M41.164 83.543h13.721v13.722H41.164zm58.113 76.278h20.582v41.166H99.277zM43.585 4.439h9.686v9.686h-9.686z"/></g><path d="M162.765 62.382v15.216H159V45.052s6.138 0 10.264-.052c5.21.052 9.182 3.868 9.233 8.769 0 4.951-3.714 8.613-8.665 8.613h-7.067zm11.915-8.717c0-3.043-2.63-5.931-5.88-5.931h-6.035v12.07h5.932c3.559 0 5.983-2.528 5.983-6.139zm11.709 16.61V54.438l-3.817 1.29v15.68c0 4.178 3.868 6.602 7.273 6.602 4.436 0 6.963-1.238 8.098-1.754.051.568 0 .413 0 .98 0 1.65-.052 4.488-.826 5.932-1.547 2.94-5.673 3.353-8.562 3.765l.62 2.373c3.816-.103 9.18-1.547 11.089-5.158 1.083-2.063 1.238-6.035 1.238-8.665V55.006h-3.766V73.42c-1.238.826-3.507 1.96-5.519 2.012-3.352.052-5.828-1.754-5.828-5.21v.052zm44.462-8.408c0 7.994-5.055 16.092-12.947 16.092-4.126 0-8.046-2.217-10.264-4.023V45.052l10.419.051c8.923 0 12.792 8.717 12.792 16.764zm-4.282.412c0-7.066-1.96-14.39-11.038-14.597h-4.074V73.06c1.238 1.135 3.507 2.27 5.673 2.27 6.396 0 9.44-7.118 9.44-13.05zm25.997 11.864c-2.167 2.166-5.674 3.92-10.162 3.868-4.074-.103-7.427-3.353-7.324-7.479.052-4.384 3.456-7.066 7.789-7.015h6.138V61.3c0-2.579-2.373-4.332-4.9-4.332-2.27 0-3.92.567-5.932 1.598l-.929-2.166c2.683-1.444 4.746-1.96 7.84-1.96 3.766 0 7.48 2.476 7.48 6.654v13.05zm-3.663-.516V65.89c-1.186 0-3.094 0-4.951.051-2.889 0-5.055 1.65-5.055 4.488 0 2.579 2.166 5.055 5.158 5.055 2.166.051 4.178-1.135 4.848-1.857zm13.514-3.353V54.44l-3.817 1.29v15.68c0 4.178 3.869 6.602 7.273 6.602 4.436 0 6.963-1.238 8.098-1.754.052.568 0 .413 0 .98 0 1.65-.051 4.488-.825 5.932-1.547 2.94-5.674 3.353-8.562 3.765l.619 2.373c3.817-.103 9.18-1.547 11.09-5.158 1.083-2.063 1.237-6.035 1.237-8.665V55.006h-3.765V73.42c-1.238.826-3.507 1.96-5.52 2.012-3.352.052-5.828-1.754-5.828-5.21v.052z" fill="#FFF"/></g><path fill="#FFC40D" fill-rule="nonzero" d="M325.243 69h59.913v200.871H188V139.175h137.245z"/><path d="M241.063 215h-17.938v-5.125h17.938V215zm0-5.125v-10.25h-5.125V194.5h10.25v15.375h-5.125zm-17.938 0H218v-20.5h5.125v20.5zm23.063-20.5h-23.063v-5.125h23.063v5.125zM273.212 215h-17.938v-5.125h-5.125v-5.125h5.125v-5.125h12.812v-2.563h5.125V215zm-17.938-5.125h12.812v-5.125h-12.812v5.125zm12.812-12.813H250.15v-5.125h17.937v5.125zM282.3 215h-5.125v-30.75h5.125V215zm9.087 0h-5.125v-23.063h5.125V215zm0-25.625h-5.125v-5.125h5.125v5.125zm21.9 25.625h-12.812v-5.125h12.812V215zm0-5.125v-5.125h5.125v5.125h-5.125zm-12.812 0h-5.125v-12.813h5.125v12.813zm17.937-7.688h-5.125v-5.125h5.125v5.125zm-5.125-5.125h-12.812v-5.125h12.812v5.125zM327.5 215h-5.125v-23.063h5.125V215zm0-25.625h-5.125v-5.125h5.125v5.125zM354.525 215h-17.938v-5.125h-5.125v-5.125h5.125v-5.125H349.4v-2.563h5.125V215zm-17.938-5.125H349.4v-5.125h-12.813v5.125zm12.813-12.813h-17.938v-5.125H349.4v5.125z" fill="#FFF"/></g></svg>